<svg version="1.0" xmlns="http://www.w3.org/2000/svg" width="1536px" height="1024px" viewBox="0 0 1536 1024" preserveAspectRatio="xMidYMid meet">
 <g fill="#ffffff">
  
  <path d="M777.23 564.18 c-6.65 -2.46 -13.66 -9.60 -16 -16.25 -2.95 -8.86 -2.46 -24.12 1.11 -31.75 5.29 -11.45 14.77 -16.37 31.63 -16.49 13.17 0 20.43 2.34 26.83 8.74 6.40 6.40 8.12 11.69 8 25.11 0 9.85 -0.37 11.82 -3.45 17.35 -6.15 11.32 -14.52 15.26 -32 15.14 -6.52 0 -13.29 -0.74 -16.12 -1.85z" data-index="1" style="opacity: 1; visibility: hidden;"></path>
  
  <path d="M625.60 564.92 c-11.57 -2.34 -20.43 -8.98 -25.60 -19.32 -3.57 -6.89 -3.69 -7.75 -3.69 -24.37 0 -17.11 0 -17.35 4.06 -25.60 7.38 -15.02 19.82 -21.17 40.62 -20.31 13.54 0.62 21.42 3.32 28.31 9.97 9.60 9.23 13.17 20.55 12.31 39.75 -0.49 14.65 -3.94 23.14 -12.55 31.02 -9.23 8.49 -26.83 12.06 -43.45 8.86z" data-index="3" style="opacity: 1; visibility: hidden;"></path>
  
 </g>
 <g fill="#4b5936">
  <path d="M779.69 636.31 c-16.12 -2.58 -43.32 -13.29 -41.97 -16.62 4.80 -12.55 8.62 -20.31 10.09 -20.31 0.98 0 4.55 1.48 8 3.20 8.98 4.43 23.51 7.88 33.72 7.88 21.66 0 34.34 -9.60 35.94 -27.20 0.37 -3.94 0.37 -7.26 -0.12 -7.26 -0.49 0 -3.45 1.97 -6.52 4.31 -15.14 11.57 -45.54 12.55 -64.62 2.22 -19.57 -10.58 -30.65 -34.09 -27.20 -56.98 2.83 -18.09 14.15 -34.34 29.17 -41.72 9.85 -4.80 17.48 -6.28 33.48 -6.28 14.28 0 22.28 2.22 31.14 8.62 l5.05 3.69 0 -4.06 c0 -6.40 1.48 -7.02 17.48 -7.02 l14.65 0 -0.37 60.06 c-0.37 59.32 -0.37 60.06 -3.20 66.95 -3.32 8.25 -11.94 18.22 -19.20 22.40 -12.55 7.26 -37.42 10.95 -55.51 8.12z m26.22 -75.57 c7.51 -2.71 11.94 -6.40 15.75 -13.42 2.71 -4.92 3.32 -7.75 3.32 -14.28 0 -9.85 -2.22 -15.51 -8.37 -21.42 -5.54 -5.42 -13.54 -8.25 -22.65 -8.25 -13.05 0.12 -23.14 6.03 -27.94 16.49 -7.26 15.75 -0.25 35.08 14.89 40.62 6.40 2.34 18.71 2.46 24.98 0.25z" data-index="5" style="opacity: 1;"></path>
  <path d="M921.23 636.31 c-16 -2.58 -42.22 -13.05 -40.86 -16.37 1.60 -3.69 8.74 -19.94 8.98 -20.43 0.25 -0.25 4.92 1.60 10.58 3.94 34.09 14.65 65.11 5.66 67.20 -19.45 0.37 -4.18 0.12 -6.77 -0.74 -6.77 -0.62 0 -4.06 1.97 -7.63 4.31 -8.74 5.91 -16.74 8 -30.15 8 -19.57 0 -33.48 -5.54 -44.68 -17.85 -24.98 -27.57 -16.25 -73.48 16.98 -89.11 19.08 -8.98 44.55 -7.75 60.18 2.95 3.45 2.34 6.52 4.31 6.89 4.31 0.37 0 0.62 -2.22 0.62 -4.80 0 -3.20 0.62 -5.05 1.97 -5.54 1.11 -0.37 8 -0.74 15.38 -0.74 l13.42 0 0 56.37 c0 61.29 -0.25 64.37 -7.14 76.92 -5.66 10.46 -17.23 18.34 -32.86 22.40 -9.35 2.34 -28.55 3.32 -38.15 1.85z m28.92 -76.43 c11.69 -5.29 16.49 -13.05 16.49 -26.95 0 -17.85 -9.60 -27.94 -27.69 -29.29 -11.20 -0.74 -19.08 1.97 -25.48 8.98 -5.54 5.91 -7.63 11.69 -7.63 21.05 0 14.15 6.89 23.75 19.69 27.69 6.28 1.85 18.83 1.11 24.62 -1.48z" data-index="6" style="opacity: 1;"></path>
  <path d="M263.75 545.60 c0.49 -35.08 1.23 -73.35 1.72 -85.17 l0.74 -21.29 5.29 -7.02 c7.14 -9.35 127.02 -142.28 128.37 -142.28 0.62 0 15.88 15.38 33.97 34.22 18.09 18.71 33.35 34.09 33.97 34.09 0.62 0 1.11 -4.92 1.11 -11.08 l0 -11.08 21.54 0 21.54 0 0 34.83 0 34.95 21.05 21.78 c11.82 12.18 20.68 22.28 20.06 22.77 -2.83 2.58 -36.06 24.74 -37.17 24.74 -0.62 0 -26.83 -26.09 -58.22 -57.85 -32.86 -33.48 -57.72 -57.85 -58.83 -57.60 -0.98 0.25 -15.38 16.12 -32 35.45 l-30.28 35.08 0 46.15 c0 45.42 0 46.15 2.46 45.78 2.09 -0.37 56.62 -16.12 130.95 -37.91 12.43 -3.69 23.75 -6.65 25.23 -6.65 1.97 0 5.05 3.69 12.31 14.28 l9.72 14.28 12.68 50.46 c7.02 27.69 12.80 50.95 12.80 51.57 0 0.62 -17.85 1.11 -44.18 1.11 l-44.18 0 -0.74 -10.09 c-0.37 -5.66 -0.98 -24 -1.48 -40.98 -0.37 -16.86 -0.98 -31.02 -1.23 -31.26 -0.49 -0.49 -106.95 33.85 -111.26 35.94 l-3.08 1.60 -0.37 22.40 -0.25 22.40 -36.55 0 -36.43 0 0.74 -63.63z" data-index="7" style="opacity: 1;"></path>
  <path d="M615.38 591.14 c-5.17 -0.86 -15.14 -4.31 -21.05 -7.26 -24.74 -12.31 -39.38 -42.09 -35.57 -72.12 2.34 -18.58 9.11 -32.12 22.28 -44.55 11.32 -10.83 22.52 -15.38 41.11 -16.98 23.88 -1.97 35.94 1.11 51.45 12.92 l4.55 3.57 0 -6.77 c0 -5.05 0.49 -6.89 1.97 -7.51 1.11 -0.37 8.86 -0.74 17.23 -0.74 l15.26 0 0 68.31 0 68.31 -17.23 0 -17.23 0 0 -6.15 c0 -3.32 -0.49 -6.15 -1.11 -6.15 -0.62 0 -2.71 1.35 -4.68 2.95 -5.29 4.43 -15.51 9.23 -24 11.20 -7.14 1.72 -25.60 2.22 -32.98 0.98z m36.31 -31.26 c15.51 -4.80 25.11 -17.60 26.22 -34.95 1.60 -26.22 -12.68 -44.18 -36.80 -45.91 -16.62 -1.11 -30.03 6.28 -37.05 20.31 -3.82 7.88 -4.06 8.98 -4.06 21.91 0 12.55 0.25 14.03 3.69 20.68 8.49 16.98 27.82 24.25 48 17.97z" data-index="8" style="opacity: 1;"></path>
  <path d="M1056.49 588.92 c-23.63 -5.17 -40.12 -22.52 -43.69 -46.15 -3.82 -24.62 9.23 -50.22 30.52 -59.94 20.18 -9.23 48.25 -7.75 62.03 3.32 2.58 1.97 4.92 3.69 5.29 3.69 0.37 0 0.74 -2.22 0.74 -4.92 l0 -4.92 16 0 16 0 0 54.15 0 54.15 -16 0 -16 0 0 -5.54 c0 -3.08 -0.37 -5.54 -0.74 -5.54 -0.49 0 -4.06 2.22 -8 4.80 -12.06 8 -29.17 10.58 -46.15 6.89z m35.20 -27.69 c11.20 -3.20 18.46 -14.03 18.46 -27.45 0 -13.17 -4.68 -21.42 -15.38 -27.08 -7.26 -3.94 -22.40 -3.82 -30.52 0.25 -19.45 9.48 -20.68 41.23 -2.09 51.69 8.74 4.80 18.58 5.78 29.54 2.58z" data-index="9" style="opacity: 1;"></path>
  <path d="M1160.86 533.91 l0.37 -54.52 16.98 -0.37 16.86 -0.37 0 7.51 c0 4.06 0.37 7.38 0.98 7.38 0.49 0 2.71 -1.97 5.05 -4.31 2.22 -2.34 7.26 -5.78 11.08 -7.63 5.78 -2.95 8.74 -3.45 19.57 -3.94 7.63 -0.25 13.29 0.12 14.03 0.86 0.98 0.98 -0.98 10.58 -5.91 27.45 -0.37 1.48 -2.46 1.85 -10.71 1.85 -12.55 -0.12 -19.94 2.46 -25.97 9.11 -2.34 2.58 -4.92 7.14 -5.66 10.09 -0.86 2.95 -1.60 17.11 -1.85 32.98 l-0.37 27.69 -17.35 0.37 -17.35 0.37 0.25 -54.52z" data-index="10"></path>
  
  <path d="M369.23 430.77 l0 -12.31 3.08 0 3.08 0 0 12.31 0 12.31 -3.08 0 -3.08 0 0 -12.31z" data-index="12" style="opacity: 1; visibility: hidden;"></path>
 </g>
</svg>