<svg xmlns="http://www.w3.org/2000/svg" width="32" height="32" viewBox="261 288 294 323" preserveAspectRatio="xMidYMid meet">
  <path fill="#4b5936" d="M263.75 545.60 c0.49 -35.08 1.23 -73.35 1.72 -85.17 l0.74 -21.29 5.29 -7.02 c7.14 -9.35 127.02 -142.28 128.37 -142.28 0.62 0 15.88 15.38 33.97 34.22 18.09 18.71 33.35 34.09 33.97 34.09 0.62 0 1.11 -4.92 1.11 -11.08 l0 -11.08 21.54 0 21.54 0 0 34.83 0 34.95 21.05 21.78 c11.82 12.18 20.68 22.28 20.06 22.77 -2.83 2.58 -36.06 24.74 -37.17 24.74 -0.62 0 -26.83 -26.09 -58.22 -57.85 -32.86 -33.48 -57.72 -57.85 -58.83 -57.60 -0.98 0.25 -15.38 16.12 -32 35.45 l-30.28 35.08 0 46.15 c0 45.42 0 46.15 2.46 45.78 2.09 -0.37 56.62 -16.12 130.95 -37.91 12.43 -3.69 23.75 -6.65 25.23 -6.65 1.97 0 5.05 3.69 12.31 14.28 l9.72 14.28 12.68 50.46 c7.02 27.69 12.80 50.95 12.80 51.57 0 0.62 -17.85 1.11 -44.18 1.11 l-44.18 0 -0.74 -10.09 c-0.37 -5.66 -0.98 -24 -1.48 -40.98 -0.37 -16.86 -0.98 -31.02 -1.23 -31.26 -0.49 -0.49 -106.95 33.85 -111.26 35.94 l-3.08 1.60 -0.37 22.40 -0.25 22.40 -36.55 0 -36.43 0 0.74 -63.63z"/>
</svg>
